


        <svg width="66" height="31" viewBox="0 0 66 31"><g id="svgGroup" stroke-linecap="round" fill-rule="evenodd" font-size="9pt" stroke="darkgray" stroke-width="0.25mm" fill="darkgray" style="stroke:darkgray;stroke-width:0.25mm;fill:darkgray"><path d="M 4.401 295.602 L 4.401 255.202 L 102.001 255.202 Q 112.001 255.202 116.001 252.602 Q 119.186 250.531 119.835 245.545 A 21.296 21.296 0 0 0 120.001 242.802 L 120.001 236.802 A 13.643 13.643 0 0 0 119.471 232.89 A 10.142 10.142 0 0 0 115.801 227.602 A 11.735 11.735 0 0 0 112.629 225.949 Q 109.339 224.77 104.195 224.489 A 62.421 62.421 0 0 0 100.801 224.402 L 65.601 224.402 A 102.814 102.814 0 0 1 46.015 222.646 Q 29.343 219.409 17.801 210.202 Q 0.001 196.002 0.001 164.402 L 0.001 151.602 Q 0.001 134.387 5.022 122.071 A 50.486 50.486 0 0 1 8.201 115.602 A 42.843 42.843 0 0 1 21.039 102.043 Q 26.289 98.405 33.017 95.634 A 81.547 81.547 0 0 1 36.201 94.402 A 99.389 99.389 0 0 1 51.539 90.302 Q 67.826 87.202 90.401 87.202 A 276.312 276.312 0 0 1 116.917 88.53 A 336.458 336.458 0 0 1 133.801 90.602 A 329.949 329.949 0 0 1 145.837 92.593 Q 160.064 95.239 168.401 98.402 L 168.401 138.802 L 76.001 138.802 Q 68.253 138.802 64.193 140.788 A 10.363 10.363 0 0 0 62.801 141.602 Q 59.558 143.872 58.944 149.034 A 21.781 21.781 0 0 0 58.801 151.602 L 58.801 157.202 A 17.512 17.512 0 0 0 59.126 160.702 Q 60.023 165.092 63.401 167.002 Q 66.942 169.003 74.631 169.464 A 83.402 83.402 0 0 0 79.601 169.602 L 115.201 169.602 Q 134.979 169.602 148.297 174.924 A 44.258 44.258 0 0 1 163.401 184.602 A 48.5 48.5 0 0 1 175.632 205.939 Q 177.839 213.614 178.287 222.813 A 98.396 98.396 0 0 1 178.401 227.602 L 178.401 248.002 Q 178.401 280.002 156.201 293.402 Q 136.099 305.535 96.153 306.682 A 298.222 298.222 0 0 1 87.601 306.802 Q 63.601 306.802 40.801 304.002 A 224.979 224.979 0 0 1 27.45 301.978 Q 13.751 299.452 4.401 295.602 Z M 586.801 220.802 L 540.801 220.802 Q 541.583 234.089 545.61 241.267 A 22.913 22.913 0 0 0 545.801 241.602 A 20.307 20.307 0 0 0 552.608 248.513 Q 555.932 250.627 560.401 252.002 A 56.206 56.206 0 0 0 567.63 253.654 Q 575.491 254.967 586.694 255.166 A 231.508 231.508 0 0 0 590.801 255.202 L 651.201 255.202 L 651.201 295.602 Q 632.401 300.802 614.201 303.602 A 223.669 223.669 0 0 1 597.166 305.516 Q 588.417 306.18 578.637 306.346 A 390.828 390.828 0 0 1 572.001 306.402 Q 534.83 306.402 513.687 297.019 A 70.411 70.411 0 0 1 513.201 296.802 A 58.701 58.701 0 0 1 484.481 268.755 A 77.095 77.095 0 0 1 482.201 263.802 Q 472.401 240.402 472.401 197.202 A 353.85 353.85 0 0 1 473.194 172.655 Q 475.073 145.736 481.401 129.002 A 67.231 67.231 0 0 1 491.06 111.412 A 54.578 54.578 0 0 1 511.001 95.402 Q 530.743 86.01 566.098 85.619 A 280.456 280.456 0 0 1 569.201 85.602 A 283.748 283.748 0 0 1 589.006 86.246 Q 609.201 87.664 622.401 92.202 A 54.149 54.149 0 0 1 637.172 99.814 A 44.826 44.826 0 0 1 650.201 115.002 A 61.086 61.086 0 0 1 655.097 127.77 Q 658.566 140.642 658.786 158.726 A 203.353 203.353 0 0 1 658.801 161.202 A 89.447 89.447 0 0 1 657.346 177.939 Q 655.573 187.226 651.642 194.307 A 39.878 39.878 0 0 1 640.401 207.202 A 60.687 60.687 0 0 1 622.679 216.007 Q 607.701 220.802 586.801 220.802 Z M 334.401 225.602 L 336.401 144.002 L 303.201 144.002 L 303.201 100.002 L 339.201 89.202 L 348.001 28.802 L 402.801 28.802 L 402.801 89.202 L 449.601 89.202 L 449.601 144.002 L 402.801 144.002 L 402.801 225.202 A 59.169 59.169 0 0 0 403.13 231.678 Q 403.873 238.398 406.292 242.45 A 14.702 14.702 0 0 0 407.201 243.802 A 16.043 16.043 0 0 0 415.535 249.477 A 24.005 24.005 0 0 0 420.401 250.402 L 447.601 253.202 L 447.601 304.402 L 405.601 304.402 A 157.958 157.958 0 0 1 389.198 303.605 Q 373.617 301.973 363.001 297.002 A 44.176 44.176 0 0 1 340.877 273.993 A 56.987 56.987 0 0 1 340.201 272.402 A 71.052 71.052 0 0 1 336.445 259.552 Q 333.757 246.112 334.324 227.751 A 222.885 222.885 0 0 1 334.401 225.602 Z M 210.801 304.402 L 210.801 89.202 L 280.001 89.202 L 280.001 304.402 L 210.801 304.402 Z M 210.001 51.202 L 210.001 9.202 Q 210.001 1.3 216.492 0.185 A 13.652 13.652 0 0 1 218.801 0.002 L 272.401 0.002 A 10.958 10.958 0 0 1 275.852 0.499 Q 280.757 2.125 280.801 9.074 A 19.956 19.956 0 0 1 280.801 9.202 L 280.801 51.202 A 13.313 13.313 0 0 1 280.399 54.63 Q 278.964 60.002 272.401 60.002 L 218.801 60.002 Q 214.801 60.002 212.401 57.602 A 8.033 8.033 0 0 1 210.171 53.214 A 11.455 11.455 0 0 1 210.001 51.202 Z M 540.001 180.002 L 579.201 180.002 A 37.699 37.699 0 0 0 584.251 179.688 Q 590.01 178.907 593.179 176.184 A 10.873 10.873 0 0 0 593.601 175.802 A 12.152 12.152 0 0 0 596.45 171.432 Q 598.001 167.539 598.001 161.602 A 49.642 49.642 0 0 0 597.536 154.544 Q 596.297 145.95 591.767 141.545 A 14.995 14.995 0 0 0 591.401 141.202 A 18.901 18.901 0 0 0 585.495 137.664 Q 579.938 135.492 571.507 135.236 A 75.952 75.952 0 0 0 569.201 135.202 Q 559.364 135.202 553.125 138.584 A 18.864 18.864 0 0 0 546.401 144.602 A 26.153 26.153 0 0 0 543.312 151.188 Q 541.088 157.983 540.358 168.654 A 167.036 167.036 0 0 0 540.001 180.002 Z" vector-effect="non-scaling-stroke"/></g></svg>
        <svg width="49" height="31" viewBox="0 0 49 31">
            <g id="svgGroup" stroke-linecap="round" fill-rule="evenodd" font-size="9pt" stroke="#32c0f1" stroke-width="0.25mm" fill="#32c0f1" style="stroke:#32c0f1;stroke-width:0.25mm;fill:#32c0f1">
                <path d="M 486.002 2.801 L 393.602 154.001 L 484.402 299.601 L 408.002 299.601 L 351.602 208.801 L 300.802 299.601 L 224.802 299.601 L 315.602 150.801 L 223.602 2.801 L 299.602 2.801 L 358.002 96.401 L 410.002 2.801 L 486.002 2.801 Z M 204.002 15.201 L 204.002 68.801 A 403.746 403.746 0 0 0 157.904 63.123 A 508.467 508.467 0 0 0 123.602 62.001 A 113.51 113.51 0 0 0 111.693 62.582 Q 99.592 63.863 91.934 67.964 A 31.842 31.842 0 0 0 90.802 68.601 Q 79.602 75.201 74.402 94.001 A 106.923 106.923 0 0 0 71.888 106.094 Q 69.831 119.412 69.349 138.543 A 487.338 487.338 0 0 0 69.202 150.801 A 505.018 505.018 0 0 0 69.55 170.254 Q 70.439 193.232 73.602 206.601 A 60.917 60.917 0 0 0 77.055 217.132 Q 81.627 227.513 89.602 232.601 A 39.358 39.358 0 0 0 99.386 236.964 Q 109.395 240.001 124.002 240.001 Q 166.789 240.001 191.997 237.489 A 228.336 228.336 0 0 0 204.002 236.001 L 204.002 289.601 A 166.171 166.171 0 0 1 178.717 296.403 Q 151.95 301.583 114.516 301.969 A 591.618 591.618 0 0 1 108.402 302.001 A 186.366 186.366 0 0 1 84.709 300.583 Q 63.627 297.876 48.402 290.001 Q 25.202 278.001 12.602 245.001 A 152.129 152.129 0 0 1 5.957 221.583 Q 0.839 196.805 0.119 162.044 A 562.689 562.689 0 0 1 0.002 150.401 A 442.124 442.124 0 0 1 1.208 116.57 Q 3.962 80.807 13.002 58.001 Q 23.202 32.264 39.929 18.964 A 63.8 63.8 0 0 1 49.602 12.601 A 99.487 99.487 0 0 1 74.363 3.557 Q 86.008 0.89 99.557 0.223 A 188.128 188.128 0 0 1 108.802 0.001 Q 139.202 0.001 163.602 4.401 Q 182.045 7.726 195.688 12.195 A 138.334 138.334 0 0 1 204.002 15.201 Z"
                    vector-effect="non-scaling-stroke" />
            </g>
            </svg>